<?xml version="1.0" encoding="utf-8"?>
<!-- Generator: $$$/GeneralStr/196=Adobe Illustrator 27.6.0, SVG Export Plug-In . SVG Version: 6.00 Build 0)  -->
<svg version="1.1" id="Ebene_1" xmlns="http://www.w3.org/2000/svg" xmlns:xlink="http://www.w3.org/1999/xlink" x="0px" y="0px"
	 viewBox="0 0 612 242.4" style="enable-background:new 0 0 612 242.4;" xml:space="preserve">
<path d="M601.3,91.3c-4.7-4.5-11.8-7-18.2-6.4c-2,0.3-4.4-1.3-4.9-3.3c-7.4-22.2-23.3-44.2-44.2-59.1c-21-14.9-47-22.8-70.3-22.5
	H148.5c-23.3-0.3-49.4,7.6-70.3,22.5c-21,14.9-36.9,37-44.2,59.1c-0.5,1.9-2.9,3.5-4.9,3.3c-6.4-0.6-13.6,2-18.2,6.4
	c-4.8,4.3-7.8,11.3-7.7,17.7v24.2c-0.1,6.5,2.9,13.4,7.7,17.7c4.7,4.5,11.8,7,18.2,6.4c2-0.3,4.4,1.3,4.9,3.3
	c5.8,17.1,16.2,33.8,29.9,47.2c13.7,13.3,30.6,23.3,47.9,28.8c17.2,5.6,36.8,7.2,55.7,4.2c18.9-3,37-10.6,51.7-21.2
	c12-8.7,27.5-13.7,42.4-13.6h89c14.9-0.1,30.4,4.9,42.4,13.6c14.7,10.6,32.8,18.2,51.7,21.2c18.9,3,38.5,1.4,55.7-4.2
	c17.3-5.4,34.2-15.4,47.9-28.8c13.7-13.3,24.1-30.1,29.9-47.2c0.5-1.9,2.9-3.5,4.9-3.3l1.7,0.1c5.7,0.2,12.5-2.4,17.1-7.1
	c4.7-4.7,7.2-11.5,7.1-17.1v-24.2C609.1,102.6,606.1,95.7,601.3,91.3z M65.3,167.2c-1.5-0.2-2.9-1.3-3.6-2.6
	c-8.6-16.7-12.3-38.4-9-58.9s13.7-39.9,27.1-53c13.1-13.5,32.5-23.8,53-27.1c20.5-3.3,42.2,0.4,58.9,9c1.3,0.6,2.4,2.1,2.6,3.6
	c0.3,1.5-0.3,3.2-1.4,4.2l-20.3,20.3c-1.2,1.3-3.4,1.8-5,1.2c-10-3.5-22-4.2-33.2-1.6c-11.2,2.6-21.6,8.6-29,16.1
	c-7.6,7.4-13.5,17.8-16.1,29c-2.6,11.2-1.9,23.1,1.6,33.2c0.6,1.6,0.1,3.8-1.2,5l-20.3,20.3C68.5,166.9,66.8,167.5,65.3,167.2z
	 M559.6,134c-3.3,24.5-16.7,47.5-33.4,61.1c-16.1,14.2-41.1,23.7-65.7,23c-24.7-0.8-49-11.8-64.2-27c-0.9-0.8-2.1-1.4-3.4-1.4H251.9
	c-1.8,0.1-3.9-1.3-4.5-3c-0.8-1.7-0.3-4.1,1.1-5.3l67.8-67.8l18.7-45.1c0.6-1.4,0.4-3.3-0.4-4.5c-0.8-1.3-2.5-2.2-4-2.2H244
	c-1.2,0-2.6,0.5-3.4,1.4l-6,6c-1.5,1.3-1.9,4.1-0.8,5.7c9.5,17,13.8,39.6,10.5,61c-3.3,21.4-14.3,41.6-28.5,54.9
	c-13.8,13.7-34.4,23.9-55.9,26.5c-21.5,2.5-43.9-2.7-60.6-12.8c-5.6-3.3-10.8-7.1-15.6-11.4c-1-0.8-1.6-2.2-1.6-3.5
	c-0.1-1.3,0.5-2.7,1.4-3.6L230.5,39.1c0.9-0.9,2.2-1.4,3.4-1.4h146.6c1.8-0.1,3.9,1.3,4.5,3c0.8,1.7,0.3,4.1-1.1,5.3l-67.8,67.8
	l-18.7,45.1c-0.6,1.4-0.4,3.3,0.4,4.5c0.8,1.3,2.5,2.2,4,2.2h67.6c1.5,0,3.2-0.9,4-2.2c0.9-1.3,1.1-3.2,0.4-4.6
	c-8.7-19.6-10.3-46.3-2.2-69.6c8.1-23.3,26-43.2,45-53.1c18.6-10.7,45-14.9,69-9.2c24,5.7,45.6,21.4,57.4,39.4
	C556,83.8,562.9,109.6,559.6,134z"/>
<path d="M524.1,121.2c0.4-14.1-6-31.1-17.7-42.8c-11.7-11.7-28.7-18.1-42.8-17.7c-14.1-0.4-31.1,6-42.8,17.7
	c-11.7,11.7-18.1,28.7-17.7,42.8c-0.4,14.1,6,31.1,17.7,42.8c11.7,11.7,28.7,18.1,42.8,17.7c14.1,0.4,31.1-6,42.8-17.7
	C518.1,152.3,524.5,135.3,524.1,121.2z"/>
<path d="M207.4,107c5.2,19.2-1.6,43.4-16.1,57c-13.7,14.5-37.8,21.3-57,16.1c-1.6-0.3-3.1-1.8-3.5-3.4c-0.5-1.6,0-3.6,1.2-4.7
	l67.3-67.3c1.1-1.2,3.2-1.7,4.7-1.2C205.6,103.9,207,105.4,207.4,107z"/>
</svg>
